<svg xmlns="http://www.w3.org/2000/svg" xmlns:xlink="http://www.w3.org/1999/xlink" fill="none" height="1188" viewBox="0 0 1188 1188" width="1188" style=""><linearGradient id="a" gradientUnits="userSpaceOnUse" x1="594" x2="594" y1="0" y2="1188"><stop offset=".0757907" stop-color="#fff" stop-opacity="0"></stop><stop offset=".171893" stop-color="#fff" stop-opacity=".65"></stop><stop offset=".317527" stop-color="#fff" stop-opacity=".15"></stop><stop offset=".349599" stop-color="#fff" stop-opacity="0"></stop><stop offset=".695687" stop-color="#fff" stop-opacity="0"></stop><stop offset=".794963" stop-color="#fff" stop-opacity=".55"></stop><stop offset="1" stop-color="#fff" stop-opacity="0"></stop></linearGradient><clipPath id="b"><path d="m0 0h1188v1188h-1188z" class="bUesqFDP_0"></path></clipPath><mask id="c" height="1188" maskUnits="userSpaceOnUse" width="1188" x="0" y="0"><path fill="url(#a)" d="M0,594A594,594 0,1,1 1188,594A594,594 0,1,1 0,594" class="bUesqFDP_1"></path></mask><g clip-path="url(#b)"><g mask="url(#c)"><g opacity=".9" stroke="#096bde" stroke-width="2"><path d="m592.792 1144.06c-302.762 0-548.1985-245.443-548.1985-548.211 0-302.767 245.4365-548.2087 548.1985-548.2086 302.762 0 548.198 245.4416 548.198 548.2086 0 302.768-245.436 548.211-548.198 548.211z" class="bUesqFDP_2"></path><path d="m1143.13 593.708c-302.759 0-548.196-245.442-548.196-548.209" class="bUesqFDP_3"></path><path d="m46.7351 593.708c302.7619 0 548.1989-245.441 548.1989-548.209" class="bUesqFDP_4"></path><path d="m594.934 1141.92c0-302.77 245.437-548.212 548.196-548.212" class="bUesqFDP_5"></path><path d="m46.7349 593.708c302.7621 0 548.1991 245.442 548.1991 548.212" class="bUesqFDP_6"></path><path d="m1140.11 592.898h-1094.748" class="bUesqFDP_7"></path><path d="m594.453 1142v-1094.7713" class="bUesqFDP_8"></path></g></g></g><style data-made-with="vivus-instant">.bUesqFDP_0{stroke-dasharray:4752 4754;stroke-dashoffset:4753;animation:bUesqFDP_draw 1900ms ease-in 0ms forwards;}.bUesqFDP_1{stroke-dasharray:3733 3735;stroke-dashoffset:3734;animation:bUesqFDP_draw 1900ms ease-in 0ms forwards;}.bUesqFDP_2{stroke-dasharray:3445 3447;stroke-dashoffset:3446;animation:bUesqFDP_draw 1900ms ease-in 0ms forwards;}.bUesqFDP_3{stroke-dasharray:862 864;stroke-dashoffset:863;animation:bUesqFDP_draw 1900ms ease-in 0ms forwards;}.bUesqFDP_4{stroke-dasharray:862 864;stroke-dashoffset:863;animation:bUesqFDP_draw 1900ms ease-in 0ms forwards;}.bUesqFDP_5{stroke-dasharray:862 864;stroke-dashoffset:863;animation:bUesqFDP_draw 1900ms ease-in 0ms forwards;}.bUesqFDP_6{stroke-dasharray:862 864;stroke-dashoffset:863;animation:bUesqFDP_draw 1900ms ease-in 0ms forwards;}.bUesqFDP_7{stroke-dasharray:1095 1097;stroke-dashoffset:1096;animation:bUesqFDP_draw 1900ms ease-in 0ms forwards;}.bUesqFDP_8{stroke-dasharray:1095 1097;stroke-dashoffset:1096;animation:bUesqFDP_draw 1900ms ease-in 0ms forwards;}@keyframes bUesqFDP_draw{100%{stroke-dashoffset:0;}}@keyframes bUesqFDP_fade{0%{stroke-opacity:1;}93.44262295081967%{stroke-opacity:1;}100%{stroke-opacity:0;}}</style></svg>